<svg width="1512" height="969" viewBox="0 0 1512 969" fill="none" xmlns="http://www.w3.org/2000/svg">
<path d="M36 0V969M126 0V969M216 0V969M306 0V969M396 0V969M486 0V969M576 0V969M666 0V969M756 0V969M846 0V969M936 0V969M1026 0V969M1116 0V969M1206 0V969M1296 0V969M1386 0V969M1476 0V969M0 934L1512 934M0 844L1512 844M0 754L1512 754M0 664L1512 664M0 574L1512 574M0 484L1512 484M0 394L1512 394M0 304L1512 304M0 214L1512 214M0 124L1512 124M0 34L1512 34.0001" stroke="url(#paint0_radial_28_91)"/>
<defs>
<radialGradient id="paint0_radial_28_91" cx="0" cy="0" r="1" gradientUnits="userSpaceOnUse" gradientTransform="translate(756 443) rotate(90) scale(526 820.755)">
<stop stop-color="#F8F7F9" stop-opacity="0"/>
<stop offset="0.3" stop-color="#F8F7F9" stop-opacity="0.5"/>
<stop offset="1" stop-color="#CECECE"/>
</radialGradient>
</defs>
</svg>
